<?xml version="1.0" encoding="utf-8"?>
<!-- Generator: Adobe Illustrator 24.3.0, SVG Export Plug-In . SVG Version: 6.00 Build 0)  -->
<svg version="1.1" id="Isolation_Mode" xmlns="http://www.w3.org/2000/svg" xmlns:xlink="http://www.w3.org/1999/xlink" x="0px"
	 y="0px" viewBox="0 0 174.2 78.2" style="enable-background:new 0 0 174.2 78.2;" xml:space="preserve">
<style type="text/css">
	.st0{fill:#FFFFFF;}
</style>
<path class="st0" d="M126.8,36.4c0.7-1.1,1.1-2.3,1.2-3.5h-2c-0.1,0.7-0.2,1.3-0.5,1.9l-2.3-2.7c1.5-0.6,2.5-2.1,2.6-3.7
	c-0.1-2-1.8-3.5-3.8-3.4c-1.8,0.1-3.3,1.6-3.4,3.4c0.1,1.2,0.6,2.3,1.5,3.2c-1.7,0.9-3.4,2.2-3.4,4.2c0,2.7,1.9,4.3,4.6,4.3
	c1.6,0,3.1-0.7,4.1-1.9l1.3,1.6h2.8L126.8,36.4z M122.3,26.7c0.8,0,1.5,0.7,1.5,1.5c0,0.1,0,0.1,0,0.2c0,1.2-0.9,1.8-1.7,2.4
	c-0.5-0.8-1.3-1.5-1.3-2.4c-0.1-0.8,0.6-1.6,1.4-1.6C122.2,26.7,122.2,26.7,122.3,26.7 M121.4,38.3c-1.2,0.1-2.3-0.9-2.3-2.1
	c0-0.1,0-0.2,0-0.3c0-1.7,1.4-2.2,2.2-2.7l2.8,3.5C123.6,37.6,122.5,38.3,121.4,38.3"/>
<path class="st0" d="M99.8,39.7c-0.1,0-0.3-0.1-0.3-0.2l-2.8-5.7h-2.5c-0.1,0-0.1,0-0.2,0.1c0,0,0,0,0,0v5.5c0,0.1-0.1,0.2-0.2,0.2
	c0,0,0,0,0,0h-2.1c-0.1,0-0.2-0.1-0.2-0.2c0,0,0,0,0,0V25.4c0-0.1,0.1-0.2,0.2-0.2c0,0,0,0,0,0h5.6c2.4-0.2,4.5,1.6,4.7,4
	c0,0.1,0,0.2,0,0.4c0,1.8-1.1,3.4-2.8,4l3,5.9c0.1,0.2,0,0.2-0.2,0.2L99.8,39.7L99.8,39.7z M99.6,29.5c0-1.1-0.8-2-1.9-2.1
	c-0.1,0-0.2,0-0.3,0h-3.1c-0.1,0-0.1,0-0.2,0.1c0,0,0,0,0,0v3.9c0,0.1,0,0.1,0.1,0.1c0,0,0,0,0,0h3.1c1.2,0.1,2.2-0.8,2.2-2
	C99.5,29.6,99.6,29.6,99.6,29.5"/>
<path class="st0" d="M122.4,49.3c-4.5,0-8.8-1.8-11.9-4.9c-6.6-6.5-6.6-17-0.2-23.6c0.1-0.1,0.1-0.1,0.2-0.2
	c3.2-3.2,7.5-4.9,11.9-4.9c4.5,0,8.8,1.7,11.9,4.9c6.6,6.5,6.6,17,0.2,23.6c-0.1,0.1-0.1,0.1-0.2,0.2
	C131.2,47.5,126.9,49.3,122.4,49.3 M122.4,17.7c-3.9,0-7.7,1.5-10.5,4.3c-5.8,5.7-5.8,15-0.1,20.8c0,0,0.1,0.1,0.1,0.1
	c5.8,5.8,15.2,5.8,21,0c2.8-2.8,4.4-6.5,4.4-10.5c0-3.9-1.5-7.7-4.3-10.4l0,0C130.1,19.2,126.3,17.6,122.4,17.7"/>
<path class="st0" d="M96.6,49.2c-4.5,0-8.8-1.8-11.9-4.9c-3.2-3.1-5-7.4-5-11.8c0-9.3,7.6-16.8,16.9-16.8c4.5,0,8.8,1.8,11.9,4.9
	c6.6,6.5,6.6,17,0.2,23.6c-0.1,0.1-0.1,0.1-0.2,0.2C105.3,47.5,101,49.2,96.6,49.2 M96.5,17.7c-8.2,0-14.8,6.6-14.8,14.8
	c0,3.9,1.6,7.7,4.4,10.4c5.8,5.7,15.2,5.7,21,0c5.8-5.7,5.8-15,0.1-20.7c0,0-0.1-0.1-0.1-0.1C104.3,19.2,100.5,17.7,96.5,17.7"/>
<path class="st0" d="M148.2,49.3c-4.5,0-8.8-1.8-11.9-4.9c-6.6-6.5-6.6-17-0.2-23.6c0.1-0.1,0.1-0.1,0.2-0.2
	c6.6-6.6,17.3-6.6,23.9,0c6.6,6.6,6.5,17.2,0,23.8C156.9,47.5,152.6,49.3,148.2,49.3 M148.2,17.7c-3.9,0-7.7,1.5-10.5,4.3
	c-5.8,5.7-5.8,15-0.1,20.8c0,0,0.1,0.1,0.1,0.1c5.8,5.8,15.2,5.8,21,0c5.8-5.7,5.8-15,0.1-20.7c0,0-0.1-0.1-0.1-0.1
	C155.9,19.2,152.1,17.6,148.2,17.7"/>
<path class="st0" d="M151.7,39.7c-0.1,0-0.3-0.1-0.3-0.2l-2.9-5.7H146c-0.1,0-0.1,0-0.1,0.1c0,0,0,0,0,0v5.5c0,0.1-0.1,0.2-0.2,0.2
	c0,0,0,0,0,0h-2c-0.1,0-0.2-0.1-0.2-0.2V25.4c0-0.1,0.1-0.2,0.2-0.2c0,0,0,0,0,0h5.6c2.4-0.2,4.5,1.6,4.7,4c0,0.1,0,0.2,0,0.3
	c0,1.8-1.1,3.4-2.8,4l3.1,5.9c0.1,0.2,0,0.2-0.1,0.2L151.7,39.7z M151.4,29.5c0-1.1-0.8-2-1.9-2.1c-0.1,0-0.2,0-0.3,0h-3.1
	c-0.1,0-0.1,0-0.1,0.1c0,0,0,0,0,0v3.9c0,0.1,0,0.1,0.1,0.1c0,0,0,0,0,0h3.1c1.2,0.1,2.2-0.8,2.2-2
	C151.4,29.6,151.4,29.6,151.4,29.5"/>
<path class="st0" d="M19.5,40.1c-4.1,0.1-7.4-3.2-7.5-7.2c0-0.1,0-0.2,0-0.3c-0.1-4.1,3.1-7.5,7.2-7.6c0.1,0,0.2,0,0.3,0
	c2-0.1,4,0.7,5.5,2.1c0.1,0.1,0.1,0.3,0,0.4c0,0,0,0,0,0l-1.2,1.4c-0.1,0.1-0.3,0.1-0.5,0c-1-1-2.4-1.6-3.9-1.6
	c-2.8,0-5,2.3-4.9,5.1c0,0.1,0,0.1,0,0.2c-0.2,2.8,1.9,5.1,4.7,5.3c0.1,0,0.2,0,0.2,0c1.5,0,3-0.6,4-1.7c0.1-0.1,0.3-0.1,0.4,0
	l1.2,1.2c0.1,0.1,0.1,0.1,0.1,0.2c0,0.1,0,0.2-0.1,0.2C23.7,39.3,21.6,40.2,19.5,40.1z"/>
<path class="st0" d="M42.5,39.9h-2c-0.1,0-0.2-0.1-0.2-0.2v0V31l-3,6.8c0,0.1-0.1,0.1-0.2,0.1h-1.7c-0.1,0-0.2-0.1-0.2-0.1L32,31
	v8.6c0,0.1-0.1,0.2-0.2,0.2c0,0,0,0,0,0h-2c-0.1,0-0.2-0.1-0.2-0.2l0,0V25.4c0-0.1,0.1-0.2,0.2-0.2h2.1c0.1,0,0.2,0.1,0.2,0.1
	l4.1,8.9l3.9-8.9c0-0.1,0.1-0.2,0.2-0.1h2.1c0.1,0,0.2,0.1,0.2,0.2v0v14.2C42.7,39.7,42.6,39.9,42.5,39.9z"/>
<path class="st0" d="M54.4,40h-1.8c-0.1,0-0.3-0.1-0.3-0.2l0,0l-5.8-14.2c-0.1-0.1-0.1-0.2,0-0.3c0.1-0.1,0.2-0.1,0.3-0.1h2
	c0.1,0,0.3,0.1,0.3,0.2l4.3,10.9c0,0.1,0.1,0.1,0.1,0.1l0,0c0.1,0,0.1,0,0.1-0.1l4.2-10.9c0-0.1,0.2-0.2,0.3-0.2h2
	c0.1,0,0.2,0.1,0.3,0.1c0.1,0.1,0.1,0.2,0,0.3l-5.8,14.1C54.6,39.9,54.5,40,54.4,40z"/>
<rect x="68.6" y="15" class="st0" width="2.1" height="34.3"/>
<path class="st0" d="M10.9,59.8h1.6c0.7-0.1,1.4,0.4,1.5,1.2c0,0.1,0,0.1,0,0.2l0,0c0,0.9-0.7,1.4-1.6,1.4h-0.8v1.3h-0.7V59.8z
	 M12.5,61.9c0.5,0,0.9-0.3,0.9-0.7l0,0c0-0.5-0.3-0.7-0.9-0.7h-0.8V62L12.5,61.9z"/>
<path class="st0" d="M33.7,59.8h0.7l1.8,4.1h-0.8l-0.4-1h-1.9l-0.4,1H32L33.7,59.8z M34.7,62.3L34,60.7l-0.7,1.6H34.7z"/>
<path class="st0" d="M53.9,59.8h1.8c0.4,0,0.8,0.1,1.2,0.4c0.2,0.2,0.3,0.5,0.3,0.9l0,0c0,0.6-0.4,1.1-1,1.2l1.1,1.5h-0.8l-1-1.4
	h-0.9v1.4h-0.7L53.9,59.8z M55.7,61.8c0.5,0,0.8-0.3,0.8-0.7l0,0c0-0.4-0.3-0.7-0.8-0.7h-1v1.4L55.7,61.8z"/>
<polygon class="st0" points="76.9,60.5 75.6,60.5 75.6,59.8 78.9,59.8 78.9,60.5 77.6,60.5 77.6,63.9 76.9,63.9 "/>
<polygon class="st0" points="97,59.8 97.7,59.8 99.9,62.6 99.9,59.8 100.6,59.8 100.6,63.9 100,63.9 97.7,61 97.7,63.9 97,63.9 "/>
<polygon class="st0" points="118.9,59.8 121.8,59.8 121.8,60.5 119.6,60.5 119.6,61.5 121.6,61.5 121.6,62.2 119.6,62.2 119.6,63.2 
	121.9,63.2 121.9,63.9 118.9,63.9 "/>
<path class="st0" d="M140.2,59.8h1.8c0.4,0,0.8,0.1,1.2,0.4c0.2,0.2,0.3,0.5,0.3,0.9l0,0c0,0.6-0.4,1.1-1,1.2l1.1,1.5h-0.8l-1-1.4
	h-0.9v1.4h-0.7L140.2,59.8z M142,61.8c0.5,0,0.8-0.3,0.8-0.7l0,0c0-0.4-0.3-0.7-0.8-0.7h-1v1.4L142,61.8z"/>
<path class="st0" d="M162,63.3l0.4-0.5c0.3,0.3,0.8,0.5,1.3,0.5c0.4,0,0.7-0.2,0.7-0.5l0,0c0-0.3-0.2-0.5-0.9-0.6s-1.3-0.5-1.3-1.2
	l0,0c0-0.7,0.6-1.2,1.3-1.2c0,0,0.1,0,0.1,0c0.5,0,1.1,0.2,1.5,0.5l-0.4,0.5c-0.3-0.3-0.7-0.4-1.1-0.4c-0.4,0-0.6,0.2-0.6,0.5l0,0
	c0,0.3,0.2,0.5,1,0.6s1.3,0.5,1.3,1.2l0,0c0,0.8-0.6,1.2-1.4,1.2C163.1,63.9,162.5,63.7,162,63.3"/>
</svg>
