<svg xmlns="http://www.w3.org/2000/svg" width="87.199" height="87.199" viewBox="0 0 87.199 87.199">
  <path id="Trazado_1474" data-name="Trazado 1474" d="M299.6,690a43.6,43.6,0,1,0,43.6,43.6A43.6,43.6,0,0,0,299.6,690Zm-21.8,21.8h43.6a5.459,5.459,0,0,1,2.229.48L299.6,740.309,275.571,712.28A5.354,5.354,0,0,1,277.8,711.8Zm-5.45,38.149v-32.7c0-.114.006-.229.011-.343l15.979,18.644-15.8,15.8A5.265,5.265,0,0,1,272.35,749.949Zm49.05,5.45H277.8a5.478,5.478,0,0,1-1.406-.186L291.9,739.7l7.7,8.981,7.7-8.981,15.511,15.51a5.266,5.266,0,0,1-1.406.186Zm5.45-5.45a5.5,5.5,0,0,1-.185,1.406l-15.8-15.8,15.979-18.644c.006.114.011.229.011.343Z" transform="translate(-256 -690)" fill="#444"/>
</svg>
