<?xml version="1.0" encoding="utf-8"?>
<!-- Generator: Adobe Illustrator 24.3.0, SVG Export Plug-In . SVG Version: 6.00 Build 0)  -->
<svg version="1.1" id="Capa_1" xmlns="http://www.w3.org/2000/svg" xmlns:xlink="http://www.w3.org/1999/xlink" x="0px" y="0px"
	 viewBox="0 0 164 64" style="enable-background:new 0 0 164 64;" xml:space="preserve">
<style type="text/css">
	.st0{fill:#272728;}
	.st1{fill:#FFFFFF;}
</style>
<circle class="st0" cx="35.9" cy="31.5" r="28.5"/>
<circle class="st0" cx="81.8" cy="31.5" r="28.5"/>
<circle class="st0" cx="128.3" cy="31.5" r="28.5"/>
<path class="st1" d="M90,39.1c1.2-1.9,2-4.1,2.2-6.3h-3.6c-0.1,1.2-0.4,2.3-0.8,3.4l-4.1-4.9c2.7-1.1,4.5-3.7,4.7-6.6
	c-0.2-3.5-3.2-6.3-6.8-6.1c-3.3,0.2-5.9,2.8-6.1,6.1c0.2,2.1,1.1,4.2,2.7,5.7c-3,1.5-6,3.9-6,7.5c0,4.9,3.5,7.7,8.2,7.7
	c2.8,0.1,5.5-1.2,7.3-3.4l2.4,2.9h5.1L90,39.1z M81.9,21.6c1.5,0,2.7,1.2,2.7,2.7c0,0.1,0,0.2,0,0.3c0,2.1-1.6,3.2-3.1,4.2
	c-0.9-1.4-2.4-2.6-2.4-4.3c-0.1-1.5,1.1-2.8,2.6-2.9C81.7,21.6,81.8,21.6,81.9,21.6 M80.3,42.4c-2.2,0.1-4.1-1.6-4.2-3.8
	c0-0.2,0-0.4,0-0.5c0-3.1,2.5-3.9,4-4.9l5.1,6.3C84.3,41.3,82.4,42.4,80.3,42.4"/>
<path class="st1" d="M41.6,45c-0.2,0-0.5-0.1-0.5-0.4l-5-10.1h-4.5c-0.1,0-0.2,0.1-0.3,0.2c0,0,0,0.1,0,0.1v9.9
	c0,0.2-0.1,0.3-0.3,0.4c0,0-0.1,0-0.1,0h-3.7c-0.2,0-0.4-0.1-0.4-0.3c0,0,0,0,0-0.1V19.4c0-0.2,0.1-0.4,0.3-0.4c0,0,0.1,0,0.1,0
	h10.1c4.3-0.3,8,2.9,8.3,7.2c0,0.2,0,0.4,0,0.6c0.1,3.2-1.9,6.1-5,7.2l5.4,10.5c0.2,0.3,0,0.4-0.3,0.4L41.6,45L41.6,45z M41.2,26.7
	c0.1-2-1.5-3.6-3.4-3.7c-0.2,0-0.4,0-0.6,0h-5.6c-0.1,0-0.2,0.1-0.3,0.2c0,0,0,0.1,0,0.1v7c0,0.1,0.1,0.2,0.2,0.3c0,0,0.1,0,0.1,0
	h5.6c2.1,0.1,3.9-1.5,4-3.5C41.2,26.9,41.2,26.8,41.2,26.7"/>
<path class="st0" d="M82.1,62.1c-8,0-15.7-3.2-21.4-8.9C49,41.7,48.8,22.7,60.4,11c0.1-0.1,0.2-0.2,0.3-0.3
	c5.7-5.7,13.4-8.9,21.4-8.8c8-0.1,15.7,3.1,21.4,8.8c11.7,11.6,11.9,30.5,0.3,42.3c-0.1,0.1-0.2,0.2-0.3,0.3
	C97.8,58.9,90.1,62.1,82.1,62.1 M82.1,5.5c-7.1,0-13.8,2.8-18.8,7.7c-10.3,10.2-10.4,26.9-0.2,37.2c0.1,0.1,0.1,0.1,0.2,0.2
	c10.4,10.4,27.2,10.4,37.6,0c5-4.9,7.8-11.7,7.8-18.7c0-7-2.8-13.8-7.8-18.7l0,0C96,8.2,89.2,5.4,82.1,5.5"/>
<path class="st0" d="M35.9,62.1c-8,0-15.7-3.2-21.4-8.8c-5.7-5.5-9-13.2-9-21.2C5.6,15.4,19.1,1.9,35.8,1.9c8,0,15.7,3.2,21.4,8.9
	C68.9,22.4,69.1,41.3,57.5,53c-0.1,0.1-0.2,0.2-0.3,0.3C51.5,58.9,43.8,62.1,35.9,62.1 M35.8,5.5C21.2,5.6,9.3,17.4,9.2,32
	c0,7,2.8,13.7,7.8,18.6C27.5,61,44.2,61,54.7,50.7C65,40.5,65.1,23.8,54.9,13.5c-0.1-0.1-0.2-0.2-0.2-0.2
	C49.7,8.3,42.9,5.5,35.8,5.5"/>
<path class="st0" d="M128.3,62.1c-8,0-15.7-3.2-21.4-8.9C95.2,41.7,95.1,22.7,106.7,11c0.1-0.1,0.2-0.2,0.3-0.3
	c11.8-11.8,31-11.8,42.8,0c11.7,11.8,11.7,30.9-0.1,42.6C144,59,136.3,62.1,128.3,62.1 M128.3,5.5c-7.1,0-13.8,2.8-18.8,7.7
	c-10.3,10.2-10.4,26.9-0.2,37.2c0.1,0.1,0.1,0.1,0.2,0.2c10.4,10.4,27.2,10.4,37.6,0c10.3-10.2,10.5-26.8,0.3-37.2
	c-0.1-0.1-0.2-0.2-0.3-0.3C142.1,8.3,135.4,5.5,128.3,5.5"/>
<path class="st1" d="M134.7,45c-0.2,0-0.5-0.1-0.5-0.4L129,34.5h-4.6c-0.1,0-0.2,0.1-0.3,0.2c0,0,0,0.1,0,0.1v9.9
	c0,0.2-0.1,0.3-0.3,0.4c0,0,0,0-0.1,0h-3.7c-0.2,0-0.3-0.2-0.4-0.4V19.4c0-0.2,0.1-0.4,0.3-0.4c0,0,0,0,0.1,0h10.1
	c4.3-0.3,8,2.9,8.4,7.2c0,0.2,0,0.4,0,0.6c0.1,3.2-2,6.1-5,7.2l5.6,10.6c0.2,0.3,0,0.4-0.3,0.4L134.7,45z M134.2,26.7
	c0.1-2-1.5-3.6-3.4-3.7c-0.2,0-0.4,0-0.6,0h-5.6c-0.1,0-0.2,0.1-0.3,0.2c0,0,0,0.1,0,0.1v7c0,0.1,0.1,0.2,0.2,0.3c0,0,0.1,0,0.1,0
	h5.6c2.1,0.1,3.9-1.5,4-3.5C134.2,26.9,134.2,26.8,134.2,26.7"/>
</svg>
